<svg aria-hidden="true" style="position: absolute; width: 0; height: 0; overflow: hidden;" version="1.1" xmlns="http://www.w3.org/2000/svg" xmlns:xlink="http://www.w3.org/1999/xlink">
<defs>
<symbol id="icon-touch-icon" viewBox="0 0 32 32">
<path d="M13 2c-3.312 0.004-5.996 2.688-6 6v0h2c0-2.209 1.791-4 4-4s4 1.791 4 4v0h2c-0.004-3.312-2.688-5.996-6-6h-0z"></path>
<path d="M21 30h-4.44c-1.046-0-1.998-0.402-2.711-1.060l-9.197-8.464c-0.401-0.367-0.652-0.893-0.652-1.477 0-0.638 0.299-1.207 0.765-1.573l0.004-0.003c0.339-0.251 0.765-0.401 1.226-0.401 0.556 0 1.061 0.219 1.433 0.575l-0.001-0.001 3.572 3.261v-12.857c0-1.105 0.895-2 2-2s2 0.895 2 2v0 7c0-1.105 0.895-2 2-2s2 0.895 2 2v0 1c0-1.105 0.895-2 2-2s2 0.895 2 2v1c0-1.105 0.895-2 2-2s2 0.895 2 2v0 7c0 3.314-2.686 6-6 6v0z"></path>
</symbol>
<symbol id="icon-lupa-icon" viewBox="0 0 32 32">
<path stroke-linejoin="round" stroke-linecap="round" stroke-miterlimit="4" stroke-width="2.6667" d="M14.667 25.333c5.891 0 10.667-4.776 10.667-10.667s-4.776-10.667-10.667-10.667v0c-5.891 0-10.667 4.776-10.667 10.667s4.776 10.667 10.667 10.667v0M28 28l-5.801-5.799"></path>
</symbol>
<symbol id="icon-down-icon" viewBox="0 0 50 32">
<path stroke-linejoin="round" stroke-linecap="round" stroke-miterlimit="4" stroke-width="9.1429" d="M4.571 4.571l20.571 20.571 20.571-20.571"></path>
</symbol>
<symbol id="icon-footer-logo-icon" viewBox="0 0 67 32">
<path fill="#a1d737" style="fill: var(--color1, #a1d737)" d="M0 23.556c0-4.009 3.25-7.259 7.259-7.259h30.815c4.009 0 7.259 3.25 7.259 7.259s-3.25 7.259-7.259 7.259h-30.815c-4.009 0-7.259-3.25-7.259-7.259z"></path>
<path fill="#111" style="fill: var(--color2, #111)" d="M9.446 25.778v-4.148h1.707q0.551 0 0.942 0.178 0.397 0.178 0.61 0.51t0.213 0.788-0.213 0.788q-0.213 0.326-0.61 0.504-0.391 0.172-0.942 0.172h-1.28l0.344-0.35v1.559zM12.16 25.778l-1.049-1.505h0.824l1.055 1.505zM10.216 24.302l-0.344-0.367h1.244q0.51 0 0.764-0.219 0.261-0.219 0.261-0.61 0-0.397-0.261-0.61-0.255-0.213-0.764-0.213h-1.244l0.344-0.379zM13.84 25.778v-3.164h0.741v3.164zM14.213 22.092q-0.207 0-0.344-0.13c-0.080-0.078-0.13-0.187-0.13-0.308 0-0.002 0-0.004 0-0.006v0q0-0.19 0.13-0.314 0.136-0.13 0.344-0.13t0.338 0.124q0.136 0.119 0.136 0.302 0 0.196-0.13 0.332-0.13 0.13-0.344 0.13zM17.135 25.819q-0.498 0-0.889-0.207c-0.252-0.139-0.457-0.336-0.6-0.574l-0.004-0.007q-0.219-0.367-0.219-0.836 0-0.474 0.219-0.836c0.147-0.244 0.352-0.439 0.596-0.571l0.008-0.004q0.391-0.207 0.889-0.207 0.462 0 0.812 0.19c0.235 0.121 0.42 0.309 0.536 0.538l0.003 0.007-0.569 0.332q-0.142-0.225-0.35-0.332c-0.125-0.067-0.272-0.107-0.43-0.107-0.003 0-0.006 0-0.009 0h0q-0.273 0-0.492 0.119t-0.344 0.344q-0.124 0.219-0.124 0.527t0.124 0.533q0.124 0.219 0.344 0.338t0.492 0.119q0.237 0 0.439-0.107 0.207-0.107 0.35-0.332l0.569 0.332q-0.184 0.356-0.539 0.551-0.35 0.19-0.812 0.19zM19.832 25.073l0.018-0.93 1.653-1.529h0.889l-1.404 1.41-0.391 0.326zM19.228 25.778v-4.397h0.741v4.397zM21.616 25.778l-1.156-1.428 0.468-0.593 1.588 2.021zM26.843 25.778v-0.64l-0.041-0.136v-1.12q0-0.326-0.196-0.504-0.196-0.184-0.593-0.184-0.267 0-0.527 0.083c-0.166 0.053-0.31 0.131-0.435 0.233l0.002-0.002-0.29-0.539q0.255-0.196 0.604-0.29 0.356-0.101 0.735-0.101 0.687 0 1.061 0.332 0.379 0.326 0.379 1.013v1.855zM25.848 25.819q-0.356 0-0.622-0.119-0.267-0.124-0.415-0.338c-0.089-0.136-0.142-0.303-0.142-0.482 0-0.003 0-0.007 0-0.010v0q0-0.267 0.124-0.48 0.13-0.213 0.421-0.338t0.77-0.124h0.919v0.492h-0.865q-0.379 0-0.51 0.124-0.13 0.119-0.13 0.296 0 0.201 0.16 0.32t0.444 0.119q0.273 0 0.486-0.124c0.144-0.082 0.254-0.209 0.312-0.363l0.002-0.005 0.124 0.444q-0.107 0.279-0.385 0.433-0.273 0.154-0.693 0.154zM30.419 22.578q0.38 0 0.676 0.148 0.302 0.148 0.474 0.456 0.172 0.302 0.172 0.782v1.813h-0.741v-1.719q0-0.421-0.201-0.628-0.196-0.207-0.551-0.207-0.26 0-0.462 0.107t-0.314 0.32q-0.107 0.207-0.107 0.527v1.6h-0.741v-3.164h0.705v0.853l-0.124-0.261c0.11-0.2 0.275-0.359 0.474-0.459l0.006-0.003q0.32-0.166 0.735-0.166zM34.156 25.819q-0.456 0-0.824-0.201c-0.239-0.137-0.432-0.33-0.565-0.562l-0.004-0.007q-0.207-0.361-0.207-0.853t0.207-0.853c0.136-0.238 0.329-0.429 0.561-0.559l0.007-0.004q0.367-0.201 0.824-0.201 0.397 0 0.711 0.178 0.314 0.172 0.498 0.527t0.184 0.913q0 0.551-0.178 0.913-0.178 0.356-0.492 0.533t-0.723 0.178zM34.244 25.185q0.267 0 0.474-0.119 0.213-0.119 0.338-0.344 0.13-0.225 0.13-0.527 0-0.308-0.13-0.527c-0.079-0.145-0.194-0.262-0.334-0.341l-0.004-0.002q-0.207-0.119-0.474-0.119t-0.48 0.119c-0.142 0.083-0.257 0.2-0.335 0.339l-0.002 0.005q-0.124 0.219-0.124 0.527 0 0.302 0.124 0.527c0.081 0.144 0.196 0.26 0.334 0.341l0.004 0.002q0.213 0.119 0.48 0.119zM35.204 25.778v-0.747l0.030-0.841-0.059-0.841v-1.967h0.735v4.397z"></path>
<path fill="#daf836" style="fill: var(--color3, #daf836)" d="M31.4 6.148c2.131-3.396 6.615-4.426 10.015-2.301l19.097 11.933c3.4 2.124 4.428 6.599 2.297 9.995s-6.615 4.426-10.015 2.302l-19.097-11.933c-3.4-2.124-4.428-6.6-2.297-9.995z"></path>
<path fill="#111" style="fill: var(--color2, #111)" d="M37.969 13.223l2.316-3.689 0.565 0.353-0.076 3.702-0.296-0.185 3.279-1.701 0.564 0.353-2.31 3.692-0.649-0.406 1.672-2.675 0.137 0.086-2.763 1.406-0.306-0.191 0.041-3.108 0.158 0.099-1.677 2.672zM44.3 17.23q-0.433-0.27-0.655-0.666c-0.132-0.233-0.209-0.512-0.209-0.809 0-0.014 0-0.028 0.001-0.042l-0 0.002q0.010-0.449 0.271-0.865 0.265-0.421 0.662-0.621c0.217-0.114 0.474-0.182 0.748-0.182 0.037 0 0.075 0.001 0.111 0.004l-0.005-0q0.453 0.027 0.886 0.297 0.438 0.273 0.66 0.669 0.227 0.399 0.215 0.839-0.007 0.444-0.275 0.87-0.261 0.417-0.662 0.621c-0.219 0.118-0.479 0.187-0.756 0.187-0.036 0-0.071-0.001-0.106-0.003l0.005 0q-0.454-0.027-0.892-0.3zM44.654 16.666q0.243 0.152 0.499 0.165c0.014 0.001 0.029 0.001 0.045 0.001 0.163 0 0.316-0.046 0.446-0.125l-0.004 0.002q0.236-0.131 0.405-0.4 0.172-0.274 0.183-0.538c0.002-0.022 0.003-0.049 0.003-0.075 0-0.152-0.040-0.295-0.109-0.42l0.002 0.004c-0.088-0.155-0.21-0.28-0.357-0.37l-0.004-0.003q-0.243-0.151-0.499-0.165c-0.009-0-0.020-0.001-0.031-0.001-0.168 0-0.325 0.045-0.461 0.124l0.004-0.002q-0.233 0.126-0.405 0.4-0.169 0.269-0.184 0.538c-0.001 0.019-0.002 0.040-0.002 0.062 0 0.157 0.039 0.304 0.108 0.433l-0.002-0.005q0.124 0.224 0.361 0.372zM46.568 18.596l1.767-2.814 0.628 0.392-0.487 0.775 0.068-0.273c0.168-0.117 0.376-0.187 0.6-0.187 0.023 0 0.047 0.001 0.070 0.002l-0.003-0q0.367 0.024 0.773 0.278l-0.393 0.627c-0.021-0.022-0.045-0.042-0.071-0.059l-0.002-0.001c-0.021-0.018-0.044-0.035-0.068-0.050l-0.002-0.001q-0.375-0.234-0.735-0.151-0.357 0.077-0.628 0.51l-0.857 1.365zM50.009 20.798q-0.464-0.29-0.569-0.686-0.101-0.401 0.193-0.87l1.585-2.524 0.66 0.412-1.575 2.508q-0.126 0.2-0.095 0.374 0.036 0.177 0.221 0.292 0.222 0.138 0.442 0.115l-0.11 0.584q-0.176 0.022-0.374-0.036c-0.144-0.042-0.269-0.101-0.384-0.174l0.006 0.004zM50.020 17.598l0.331-0.527 1.879 1.174-0.331 0.527zM50.835 22.737c-0.143-0.090-0.264-0.198-0.366-0.323l-0.002-0.003q-0.163-0.197-0.224-0.404l0.568-0.32q0.044 0.153 0.137 0.284t0.225 0.214q0.179 0.113 0.346 0.092t0.394-0.172l0.395-0.267 0.102-0.046 2.627-1.822 0.633 0.396-3.228 2.216q-0.33 0.234-0.61 0.316-0.274 0.085-0.521 0.034c-0.181-0.039-0.342-0.107-0.484-0.2l0.005 0.003zM52.017 22.14l0.557-3.709 0.686 0.428-0.491 3.076z"></path>
</symbol>
<symbol id="icon-x" viewBox="0 0 38 32">
<path fill="none" stroke="#fafafa" style="stroke: var(--color4, #fafafa)" stroke-linejoin="round" stroke-linecap="round" stroke-miterlimit="4" stroke-width="3.2" d="M36.8 1.616c-1.44 1.028-3.109 1.862-4.9 2.415l-0.124 0.033c-1.321-1.513-3.254-2.464-5.409-2.464-3.959 0-7.168 3.209-7.168 7.168 0 0.034 0 0.068 0.001 0.101l-0-0.005v1.6c-0.132 0.004-0.287 0.006-0.442 0.006-5.748 0-10.832-2.844-13.922-7.201l-0.036-0.053s-6.4 14.4 8 20.8c-2.931 2.013-6.555 3.215-10.46 3.215-0.26 0-0.519-0.005-0.777-0.016l0.037 0.001c14.4 8 32 0 32-18.4q-0.002-0.669-0.128-1.328c1.589-1.565 2.754-3.556 3.31-5.787l0.018-0.085"></path>
</symbol>
<symbol id="icon-cross-icon" viewBox="0 0 32 32">
<path fill="none" stroke="#a1d737" style="stroke: var(--color1, #a1d737)" stroke-linejoin="round" stroke-linecap="round" stroke-miterlimit="4" stroke-width="2.1818" d="M24 8l-16 16M8 8l16 16"></path>
</symbol>
<symbol id="icon-facebook" viewBox="0 0 16 32">
<path fill="#fafafa" style="fill: var(--color4, #fafafa)" d="M13.105 5.312h2.895v-5.088c-1.247-0.143-2.692-0.224-4.157-0.224-0.022 0-0.045 0-0.067 0h0.003c-4.188 0-7.053 2.656-7.053 7.52v4.192h-4.727v5.696h4.728v14.592h5.667v-14.592h4.712l0.708-5.696h-5.42v-3.632c0-1.68 0.431-2.768 2.711-2.768z"></path>
</symbol>
<symbol id="icon-instagram" viewBox="0 0 32 32">
<path fill="#fafafa" style="fill: var(--color4, #fafafa)" d="M23.756 5.358c-1.027 0-1.859 0.832-1.859 1.859s0.832 1.859 1.859 1.859v0c1.027 0 1.859-0.832 1.859-1.859s-0.832-1.859-1.859-1.859v0zM30.879 9.106c-0.032-1.359-0.29-2.648-0.738-3.844l0.027 0.081c-0.416-1.073-1.027-1.987-1.795-2.74l-0.001-0.001c-0.749-0.774-1.665-1.381-2.691-1.764l-0.050-0.016c-1.114-0.436-2.404-0.7-3.751-0.729l-0.012-0c-1.641-0.092-2.169-0.092-6.38-0.092s-4.74 0-6.381 0.092c-1.359 0.028-2.649 0.293-3.84 0.755l0.077-0.026c-1.075 0.403-1.99 1.010-2.74 1.779l-0.002 0.002c-0.774 0.749-1.381 1.665-1.764 2.691l-0.016 0.050c-0.436 1.114-0.7 2.404-0.729 3.751l-0 0.012c-0.092 1.641-0.092 2.169-0.092 6.381s0 4.738 0.092 6.38c0.027 1.287 0.273 2.56 0.729 3.763 0.378 1.037 0.986 1.975 1.78 2.741 0.77 0.791 1.707 1.399 2.741 1.781 1.114 0.435 2.404 0.7 3.751 0.727l0.012 0c1.641 0.092 2.169 0.092 6.381 0.092s4.738 0 6.38-0.092c1.359-0.028 2.649-0.293 3.84-0.754l-0.077 0.026c1.076-0.399 1.993-1.007 2.739-1.779l0.002-0.002c0.775-0.751 1.387-1.667 1.779-2.69l0.017-0.051c0.421-1.115 0.679-2.404 0.711-3.749l0-0.014c0-1.641 0.095-2.169 0.095-6.38s0-4.74-0.095-6.381zM28.092 21.681c-0.011 1.037-0.203 2.025-0.546 2.94l0.020-0.060c-0.261 0.699-0.657 1.295-1.16 1.78l-0.001 0.001c-0.491 0.498-1.085 0.893-1.747 1.15l-0.034 0.012c-0.855 0.323-1.843 0.516-2.875 0.527l-0.005 0c-1.549 0.077-2.121 0.092-6.195 0.092s-4.646 0-6.195-0.092c-0.049 0.001-0.106 0.002-0.164 0.002-1.017 0-1.993-0.171-2.903-0.485l0.062 0.019c-0.665-0.281-1.231-0.674-1.702-1.16l-0.001-0.001c-0.502-0.485-0.894-1.081-1.136-1.749l-0.010-0.032c-0.362-0.868-0.586-1.875-0.62-2.93l-0-0.013c0-1.548-0.092-2.121-0.092-6.194s0-4.646 0.092-6.195c0.007-1.059 0.205-2.069 0.563-3.001l-0.020 0.058c0.285-0.674 0.7-1.243 1.218-1.699l0.005-0.004c0.471-0.533 1.052-0.955 1.703-1.239 0.875-0.326 1.885-0.518 2.939-0.527l0.004-0c1.549 0 2.121-0.092 6.195-0.092 4.072 0 4.646 0 6.194 0.092 0.984 0.012 1.958 0.19 2.88 0.527 0.705 0.261 1.337 0.685 1.844 1.239 0.507 0.475 0.903 1.057 1.161 1.703 0.344 0.943 0.521 1.939 0.526 2.943 0.077 1.549 0.092 2.121 0.092 6.195 0 4.072-0.015 4.646-0.092 6.194zM15.487 7.541c-4.381 0.009-7.929 3.562-7.929 7.944 0 4.388 3.557 7.944 7.944 7.944s7.944-3.556 7.944-7.943v-0c0-0.005 0-0.011 0-0.017 0-4.379-3.55-7.929-7.929-7.929-0.011 0-0.022 0-0.033 0h0.002zM15.487 20.644c-2.848 0-5.157-2.309-5.157-5.157s2.309-5.157 5.157-5.157v0c2.848 0 5.157 2.309 5.157 5.157s-2.309 5.157-5.157 5.157v0z"></path>
</symbol>
</defs>
</svg>
