<svg width="28" height="28" viewBox="0 0 28 28" fill="none" xmlns="http://www.w3.org/2000/svg">
<path d="M25 5.00005C24.0424 5.67552 22.9821 6.19216 21.86 6.53005C21.2577 5.83756 20.4573 5.34674 19.567 5.12397C18.6767 4.90121 17.7395 4.95724 16.8821 5.2845C16.0247 5.61176 15.2884 6.19445 14.773 6.95376C14.2575 7.71308 13.9877 8.61238 14 9.53005V10.53C12.2426 10.5756 10.5013 10.1859 8.93101 9.39549C7.36074 8.60513 6.01032 7.43868 5 6.00005C5 6.00005 1 15 10 19C7.94053 20.398 5.48716 21.099 3 21C12 26 23 21 23 9.50005C22.9991 9.2215 22.9723 8.94364 22.92 8.67005C23.9406 7.66354 24.6608 6.39276 25 5.00005Z" stroke="#111111" stroke-width="2" stroke-linecap="round" stroke-linejoin="round"/>
</svg>
